# xmcd
#
# Track frame offsets:
#	150
#	11640
#	22697
#	30901
#	40396
#	50080
#	60393
#	72262
#	82320
#	94759
#	104620
#	117421
#	128290
#	141539
#	150516
#	159373
#
# Disc length: 2255 seconds
#
# Revision: 0
# Processed by: cddbd v1.5.1PL2 Copyright (c) Steve Scherf et al.
# Submitted via: dBpowerAMP V4.0
#
DISCID=cc08cd10
DTITLE=Willie Nelson - Willie Nelson
DYEAR=1900
DGENRE=Country
TTITLE0=Is There Something On Your Mind
TTITLE1=A New Way To Cry
TTITLE2=Half A Man
TTITLE3=Building Heartaches
TTITLE4=Let's Pretend
TTITLE5=Broken Promises
TTITLE6=The Last Letter
TTITLE7=Pride Wins Again
TTITLE8=Country Willie
TTITLE9=Healing Hands Of Time
TTITLE10=I Just Don't Understand
TTITLE11=Touch Me
TTITLE12=You'll Always Love Someone
TTITLE13=Waiting Time
TTITLE14=Why Are You Picking On Me
TTITLE15=I Didn't Sleep A Wink
EXTD=Sent in by Garry Randall
EXTT0=
EXTT1=
EXTT2=
EXTT3=
EXTT4=
EXTT5=
EXTT6=
EXTT7=
EXTT8=
EXTT9=
EXTT10=
EXTT11=
EXTT12=
EXTT13=
EXTT14=
EXTT15=
PLAYORDER=
